HIERARCHY
ROOT Hips
{
	OFFSET 0.0000 0.0000 0.0000
	CHANNELS 6 Xposition Yposition Zposition Zrotation Xrotation Yrotation
	JOINT Ab
	{
		OFFSET -0.0000 8.0846 -0.0000
		CHANNELS 3 Zrotation Xrotation Yrotation
		JOINT Chest
		{
			OFFSET -0.0000 25.7002 -0.0000
			CHANNELS 3 Zrotation Xrotation Yrotation
			JOINT Neck
			{
				OFFSET -0.0000 25.7002 0.0000
				CHANNELS 3 Zrotation Xrotation Yrotation
				JOINT Head
				{
					OFFSET -0.0000 10.7556 0.0000
					CHANNELS 3 Zrotation Xrotation Yrotation
					End Site
					{
						OFFSET -0.0000 16.6222 0.0000
					}
				}
			}
			JOINT LeftCollar
			{
				OFFSET -0.0000 25.7002 0.0000
				CHANNELS 3 Zrotation Xrotation Yrotation
				JOINT LeftShoulder
				{
					OFFSET 19.5556 -0.0000 0.0000
					CHANNELS 3 Zrotation Xrotation Yrotation
					JOINT LeftElbow
					{
						OFFSET 27.2833 0.0000 0.0000
						CHANNELS 3 Zrotation Xrotation Yrotation
						JOINT LeftWrist
						{
							OFFSET 23.7914 0.0000 0.0000
							CHANNELS 3 Zrotation Xrotation Yrotation
							End Site
							{
								OFFSET 0.0000 -14.6667 0.0000
							}
						}
					}
				}
			}
			JOINT RightCollar
			{
				OFFSET -0.0000 25.7002 0.0000
				CHANNELS 3 Zrotation Xrotation Yrotation
				JOINT RightShoulder
				{
					OFFSET -19.5556 0.0000 0.0000
					CHANNELS 3 Zrotation Xrotation Yrotation
					JOINT RightElbow
					{
						OFFSET -27.2833 0.0000 0.0000
						CHANNELS 3 Zrotation Xrotation Yrotation
						JOINT RightWrist
						{
							OFFSET -23.7914 0.0000 0.0000
							CHANNELS 3 Zrotation Xrotation Yrotation
							End Site
							{
								OFFSET -0.0000 -14.6667 0.0000
							}
						}
					}
				}
			}
		}
	}
	JOINT LeftHip
	{
		OFFSET 11.7333 0.0000 0.0000
		CHANNELS 3 Zrotation Xrotation Yrotation
		JOINT LeftKnee
		{
			OFFSET -0.0000 -39.5330 0.0000
			CHANNELS 3 Zrotation Xrotation Yrotation
			JOINT LeftAnkle
			{
				OFFSET -0.0000 -43.0504 0.0000
				CHANNELS 3 Zrotation Xrotation Yrotation
				End Site
				{
					OFFSET -0.0000 -4.8889 16.6222
				}
			}
		}
	}
	JOINT RightHip
	{
		OFFSET -11.7333 0.0000 0.0000
		CHANNELS 3 Zrotation Xrotation Yrotation
		JOINT RightKnee
		{
			OFFSET -0.0000 -39.5330 0.0000
			CHANNELS 3 Zrotation Xrotation Yrotation
			JOINT RightAnkle
			{
				OFFSET -0.0000 -43.0504 0.0000
				CHANNELS 3 Zrotation Xrotation Yrotation
				End Site
				{
					OFFSET -0.0000 -4.8889 16.6222
				}
			}
		}
	}
}
MOTION
Frames: 24
Frame Time: 0.010000
-10.7908 96.0547 180.8083 2.8069 357.9165 166.8012 6.9447 2.0057 358.5922 352.0359 11.5437 359.5202 6.2207 342.2976 4.5695 356.4666 4.2293 3.7299 341.6327 356.3013 22.5938 313.1255 56.4701 334.9818 28.6973 354.2491 337.8145 84.3007 357.2627 351.8969 25.8074 359.0229 355.7204 50.6796 51.6210 16.6192 337.1664 354.2893 27.8013 272.4431 345.9039 26.3262 3.6125 3.0417 358.2491 358.5587 9.8613 355.0941 356.5431 342.4158 37.1560 0.6635 353.4285 1.0977 358.5824 19.2088 4.2641 2.8485 348.1273 346.4646 
-10.7914 96.0510 180.7868 2.8021 357.9165 166.8277 6.9573 2.0347 358.5735 352.0005 11.5469 359.5053 8.7311 343.0936 5.9681 353.2011 2.9589 4.8896 341.6461 356.3069 22.6142 313.1221 56.3854 334.9687 28.7004 354.2692 337.8924 84.3023 357.1536 351.7955 25.8224 359.0020 355.7301 50.6768 51.6120 16.6058 337.2652 354.3026 27.9732 271.9858 346.1951 26.2216 3.6093 3.0418 358.2202 358.5456 9.8758 355.1214 356.5241 342.3602 37.1657 0.6572 353.4356 1.1086 358.5863 19.2283 4.2565 2.7557 348.1065 346.4114 
-10.7931 96.0485 180.7666 2.7896 357.8983 166.8410 6.9393 2.0551 358.5744 352.0101 11.5337 359.5080 8.7032 343.0942 5.9759 353.0561 2.8639 4.8546 341.6551 356.2803 22.6255 313.0125 56.3073 335.0767 28.7435 354.2821 337.9751 84.2537 356.9906 351.6588 25.8139 359.0224 355.7522 50.6455 51.6356 16.6262 337.2333 354.2409 27.9731 272.4066 345.9164 26.1984 3.6037 3.0275 358.2263 358.5428 9.8895 355.0843 356.5152 342.3461 37.1660 0.6495 353.4199 1.1034 358.5789 19.2572 4.3011 2.7442 348.0974 346.3711 
-10.7953 96.0395 180.7177 2.7737 357.8646 166.8551 6.8647 2.0778 358.6143 352.0877 11.5717 359.5412 8.6618 343.0145 5.9593 353.1033 2.8672 4.8358 341.6576 356.3117 22.5868 312.7622 56.0648 335.3380 28.5909 354.3008 337.9456 84.4734 356.9615 351.6199 25.7720 358.9859 355.7037 50.3520 51.8239 17.0113 337.2824 354.2281 28.0427 271.8500 346.2022 25.8271 3.6072 2.9957 358.1850 358.4951 9.9417 355.0681 356.6413 342.3345 37.2003 0.6447 353.3660 1.1431 358.5667 19.3893 4.4231 2.8950 347.9538 346.2452 
-10.7953 96.0395 180.7177 2.7737 357.8646 166.8551 6.8647 2.0778 358.6146 352.0893 11.5674 359.5400 8.6688 343.0347 5.9415 353.0863 2.8524 4.8166 341.6542 356.3317 22.5476 312.7641 56.0582 335.3399 28.6223 354.3359 337.9528 84.4358 356.9169 351.6433 25.7811 359.0249 355.6792 50.3455 51.7646 17.0112 337.4053 354.2615 28.0507 271.8170 346.1934 25.8894 3.6072 2.9956 358.1850 358.4950 9.9417 355.0681 356.6414 342.3345 37.2004 0.6447 353.3660 1.1430 358.5667 19.3893 4.4231 2.8950 347.9539 346.2452 
-10.7966 96.0350 180.6941 2.7681 357.8561 166.8702 6.8342 2.1163 358.6267 352.1080 11.5599 359.5550 6.1900 342.2346 4.5305 356.3328 4.1129 3.6485 341.6936 356.3001 22.5358 312.5513 55.9748 335.5015 28.5902 354.3914 338.1321 84.7716 356.5060 351.2221 25.7739 358.9974 355.6680 50.2563 51.8487 17.1361 337.2685 354.2278 28.0891 271.8896 346.1618 25.7392 3.6061 2.9784 358.1393 358.4789 9.9839 355.1001 356.6044 342.2506 37.2434 0.6434 353.3487 1.1608 358.5638 19.4452 4.4554 2.8974 347.8999 346.1828 
-10.7957 96.0317 180.6667 2.7610 357.8353 166.8690 6.7835 2.1327 358.6585 352.1572 11.5721 359.5820 8.6480 342.9788 5.9031 353.3443 2.9432 4.8224 341.6892 356.3354 22.4943 312.3401 55.7480 335.7374 28.5420 354.3505 337.9092 84.5446 356.7973 351.4537 25.7726 359.0255 355.6472 50.1200 51.7987 17.2697 337.4150 354.2669 28.2436 271.7822 346.2435 25.7900 3.6063 2.9668 358.1456 358.4703 9.9917 355.0772 356.5859 342.2108 37.2556 0.6522 353.3034 1.1662 358.5457 19.5176 4.4353 2.8721 347.8555 346.1987 
-10.7946 96.0277 180.6338 2.7579 357.8298 166.8728 6.7666 2.1595 358.6666 352.1575 11.5798 359.5942 8.7011 342.9778 5.9069 353.1136 2.8383 4.7720 341.8164 356.3358 22.7491 313.1337 56.5802 334.7822 28.8794 354.3160 338.4498 84.5029 356.5842 352.0305 25.7851 358.9902 355.6408 50.0356 51.8465 17.3562 337.4488 354.2533 28.3917 271.2234 346.4230 25.6172 3.6030 2.9661 358.1513 358.4692 10.0278 354.9954 356.5631 342.1434 37.3086 0.6540 353.3008 1.1673 358.5365 19.5473 4.4393 2.8341 347.8417 346.1997 
-10.7945 96.0231 180.5958 2.7591 357.8212 166.8676 6.7914 2.2243 358.6446 352.1279 11.4973 359.5713 8.6459 343.0361 5.9037 353.2081 2.8096 4.7789 341.8704 356.3104 22.7516 312.8521 56.5388 335.0904 28.9299 354.3563 338.4511 84.5106 356.5217 352.0623 25.8165 359.0077 355.6459 49.8504 51.9254 17.5280 337.5986 354.2746 28.5284 272.0689 346.3919 26.6142 3.5999 2.9850 358.1568 358.4625 10.0275 354.9746 356.7355 341.8684 36.0215 0.6579 353.2966 1.1580 358.5239 19.5886 4.4569 2.8444 347.7881 346.2039 
-10.7915 96.0214 180.5502 2.7628 357.8156 166.8609 6.8056 2.2378 358.6427 352.0953 11.5128 359.5742 8.6017 343.0351 5.9046 353.3025 2.7837 4.7823 341.9135 356.2981 22.7876 312.6418 56.4268 335.2959 28.9080 354.3649 338.3954 84.5310 356.4846 351.9823 25.8115 359.0477 355.7266 49.7726 51.9944 17.6255 337.5393 354.2105 28.6178 272.2517 346.3915 26.5382 3.6009 3.0215 358.0815 358.4463 10.0069 355.0624 356.7191 341.8158 35.9934 0.6615 353.3142 1.1698 358.5261 19.6023 4.4764 2.8180 347.7802 346.1850 
-10.7907 96.0204 180.5078 2.7566 357.7985 166.8614 6.7854 2.2647 358.6555 352.1075 11.4935 359.5875 8.5878 343.0105 5.8973 353.3165 2.8146 4.7762 341.9194 356.3378 22.7962 312.4867 56.3064 335.4767 28.8384 354.3712 338.2719 84.5391 356.5017 351.9605 25.8009 359.0088 355.7332 49.6109 52.1619 17.8074 337.4125 354.1807 28.6989 272.1682 346.4879 26.4864 3.5885 3.0416 358.0898 358.4525 9.9884 355.0406 356.6339 342.0975 37.3532 0.6612 353.3165 1.1581 358.5050 19.6182 4.4898 2.8901 347.7286 346.1813 
-10.7917 96.0155 180.4523 2.7563 357.7765 166.8481 6.7873 2.2550 358.6862 352.0806 11.5149 359.6221 8.6267 342.9804 5.8958 353.3195 2.8534 4.7677 341.9635 356.3259 22.7950 312.2618 56.2236 335.7077 28.9689 354.2980 338.1886 84.5248 356.4612 351.9081 25.8023 359.0368 355.7249 49.4306 52.2229 18.0222 337.5391 354.1945 28.8102 272.1485 346.6644 26.5500 3.5793 3.0614 358.0753 358.4519 9.9856 355.0689 356.6220 342.0462 37.3226 0.6479 353.3427 1.1585 358.5134 19.5949 4.5007 2.8231 347.7230 346.2108 
-10.7972 96.0095 180.4120 2.7590 357.7262 166.8432 6.7895 2.2681 358.7133 352.0742 11.4764 359.6481 8.6987 342.9791 5.8979 353.2616 2.8612 4.7612 341.9641 356.3565 22.7915 312.1556 56.0965 335.9035 28.8282 354.3329 338.0567 84.6991 356.3752 351.8503 25.7907 359.0377 355.7317 49.3309 52.3007 18.1856 337.4611 354.1067 28.8287 272.4804 346.5614 26.7387 3.5939 3.0366 357.9852 358.4188 9.9897 355.0899 356.7891 341.7622 36.0878 0.6462 353.3235 1.1619 358.5212 19.5929 4.5508 2.8568 347.6783 346.1502 
-10.7993 96.0071 180.3701 2.7502 357.6626 166.8370 6.7854 2.2667 358.7331 352.0633 11.4330 359.6652 8.7088 342.9590 5.8861 353.3002 2.9100 4.7478 341.9995 356.3233 22.7742 311.8624 55.9304 336.2846 28.9573 354.2439 337.8687 84.5584 356.2769 351.7044 25.7863 359.0181 355.7429 49.2413 52.3646 18.3108 337.4151 354.1320 28.7498 271.8960 346.1588 26.2107 3.5076 2.5996 357.8536 358.5152 10.7170 355.6294 356.5432 341.6957 37.0357 0.6394 353.2982 1.1705 358.5279 19.5776 4.5728 2.8898 347.6327 346.1021 
-10.8097 96.0012 180.2781 2.7176 357.5130 166.7997 6.8910 2.2755 358.7130 351.8851 11.2954 359.6559 8.6561 342.8896 5.8820 353.4217 3.0509 4.7534 342.0628 356.3196 22.8645 311.3366 55.4295 337.0343 28.7812 354.2071 337.2902 84.8343 356.3240 351.5161 25.8355 359.0489 355.7693 48.8312 52.5918 18.7676 337.5961 354.1413 29.2714 272.1271 347.2586 26.9345 3.4828 2.5218 357.9507 358.5317 10.7039 355.5926 356.5842 341.6469 36.9843 0.6145 353.2054 1.2266 358.4699 19.5903 5.1053 3.0892 347.4249 345.6586 
-10.8097 96.0012 180.2781 2.7177 357.5131 166.7997 6.8910 2.2756 358.7143 351.8846 11.2975 359.6550 8.6532 342.8801 5.8908 353.4268 3.0568 4.7614 342.0500 356.3446 22.8820 311.3735 55.4007 337.0121 28.6535 354.1830 337.2518 84.8712 356.3306 351.4361 25.8306 359.0212 355.7809 48.8325 52.6324 18.7722 337.5262 354.0631 29.2651 272.1946 347.2472 26.9570 3.4829 2.5218 357.9507 358.5317 10.7040 355.5927 356.5841 341.6469 36.9842 0.6145 353.2055 1.2266 358.4700 19.5902 5.1053 3.0892 347.4250 345.6585 
-10.8237 95.9971 180.2236 2.6912 357.4525 166.7754 6.8827 2.2880 358.7567 351.8578 11.2475 359.6993 8.6696 342.8487 5.8941 353.4147 3.0749 4.7613 342.0710 356.3162 22.9314 311.1251 55.2078 337.3466 28.7058 354.0866 336.9919 84.9075 356.3042 351.3092 25.8115 359.0622 355.7990 48.7273 52.6537 18.9385 337.5333 354.0350 29.3088 272.6770 346.3648 26.9380 3.4504 2.5129 357.9619 358.5337 10.6759 355.5764 356.6606 341.2996 35.7027 0.5807 353.1688 1.2812 358.4805 19.6191 5.2043 3.1117 347.2948 345.5623 
-10.8381 95.9971 180.1821 2.6583 357.3187 166.7574 6.8940 2.2338 358.7893 351.8137 11.2080 359.7277 8.6385 342.8226 5.8755 353.5074 3.0366 4.7396 342.0886 356.3451 22.9301 310.8263 54.9089 337.7852 28.5722 354.0449 336.6095 85.0284 356.3037 351.2189 25.8102 359.0343 355.7977 48.5497 52.7612 19.1804 337.4179 354.0025 29.4265 272.6061 346.2777 26.8602 3.4316 2.3824 357.9812 358.5291 10.7211 355.5928 356.7086 341.2663 35.6947 0.5614 353.0292 1.3597 358.5159 19.6899 5.1821 3.0707 347.1220 345.5215 
-10.8466 95.9986 180.1235 2.6406 357.2385 166.7391 6.9329 2.2456 358.7951 351.7397 11.1395 359.7413 8.6346 342.7744 5.8551 353.5187 3.0774 4.7177 342.1091 356.3538 22.9810 310.6014 54.6550 338.1156 28.5208 353.9707 336.3127 85.0817 356.2352 351.0263 25.8285 359.0131 355.7835 48.3927 52.9142 19.3902 337.3698 353.9527 29.5442 272.5902 346.3397 26.7897 3.4220 2.3554 357.9893 358.5247 10.6921 355.6060 356.3129 341.0195 35.5521 0.5509 352.9620 1.4138 358.5213 19.7590 5.2365 3.3588 346.9508 345.4659 
-10.8804 96.0009 180.0178 2.5888 357.0543 166.6978 6.9995 2.3066 358.8051 351.6107 10.9408 359.7540 8.5711 342.7116 5.8669 353.6333 3.0575 4.7335 342.1531 356.3352 23.0575 309.9239 54.0655 339.0773 28.4666 353.8478 335.6015 85.2102 356.1457 350.7009 25.8705 359.0381 355.8457 47.9957 53.1647 19.8480 337.5770 353.9916 29.9597 271.0160 346.6470 26.1922 3.3783 2.2200 357.9202 358.4723 10.7562 355.6225 357.0551 341.1223 35.8094 0.5043 352.7685 1.5714 358.5424 19.9739 5.4062 3.8621 346.3058 345.3666 
-10.8804 96.0009 180.0178 2.5888 357.0543 166.6978 6.9996 2.3065 358.8062 351.6114 10.9396 359.7526 8.5728 342.7181 5.8610 353.6189 3.0482 4.7256 342.1621 356.3175 23.0458 309.8969 54.0774 339.1203 28.4136 353.7997 335.5899 85.1901 356.1235 350.6174 25.8723 359.0379 355.8380 47.9849 53.1680 19.8637 337.5550 353.9394 29.9572 271.0594 346.6363 26.2256 3.3783 2.2199 357.9202 358.4723 10.7562 355.6225 357.0551 341.1223 35.8095 0.5043 352.7684 1.5714 358.5424 19.9740 5.4062 3.8621 346.3058 345.3665 
-10.9029 96.0000 179.9664 2.5667 356.9537 166.6889 7.0104 2.3223 358.8340 351.5770 10.8811 359.7830 8.5668 342.6445 5.8417 353.6263 3.0541 4.7002 342.1546 356.3448 23.0987 309.7165 53.7862 339.4366 28.2217 353.7719 335.2506 85.3681 356.0911 350.3972 25.8728 359.0577 355.8378 47.7303 53.2554 20.1897 337.5253 353.8995 30.1290 271.1191 346.6630 26.1543 3.4504 1.9762 357.3460 358.1524 11.0844 355.9265 357.2374 340.8316 36.0809 0.4758 352.6561 1.6355 358.5708 20.0948 5.4722 3.9428 345.9791 345.3212 
-10.9488 95.9995 179.8399 2.5515 356.7642 166.6752 7.1362 2.4050 358.8323 351.4207 10.7015 359.7881 8.5113 342.5487 5.8384 353.7521 2.9907 4.6935 342.3156 356.3569 23.4415 309.7450 54.2005 339.4023 28.5729 353.6328 335.2840 85.3683 355.8112 350.5869 25.9203 359.0543 355.8774 47.3137 53.4289 20.7465 337.3575 353.7564 30.3656 271.2959 346.3800 25.9282 3.4447 1.7330 357.1889 358.0531 11.3765 355.8905 357.0775 340.2584 36.1329 0.4450 352.4738 1.7990 358.6213 20.3248 5.6811 4.3444 345.1663 345.0512 
-10.9337 96.0010 179.7450 2.4991 356.8794 166.4594 6.9101 2.6119 358.9729 351.5120 10.7187 359.9297 8.4747 342.4054 5.8487 353.8490 2.9590 4.6948 342.3603 356.3235 23.6222 309.5709 54.0778 339.5734 28.5065 353.6146 335.1400 85.5831 355.6672 350.4703 25.8873 359.0765 355.9249 47.0355 53.4649 21.1630 337.3949 353.7458 30.5997 271.1249 346.7007 25.8745 3.4812 1.8032 356.9253 357.6934 11.6496 356.1265 357.3943 340.0015 36.3749 0.4079 352.5713 2.1441 358.5508 20.4808 6.0189 4.4950 344.8335 344.8794 
